<svg width="85" height="76" viewBox="0 0 85 76" fill="none" xmlns="http://www.w3.org/2000/svg">
<g clip-path="url(#clip0_63_434)">
<path d="M78.5999 0.999963H40.1999C25.2999 0.899963 17.4999 2.49996 11.2999 7.99996C4.9999 13.5 2.0999 20 1.5999 28.1C1.3999 31 1.3999 34.2 1.3999 38C1.5999 47.7 2.3999 54.9 6.6999 61.4C12.6999 70.3 21.4999 74.8 36.4999 74.9C44.8999 75.1 52.9999 74.8 58.6999 72.9C64.4999 71.1 68.9999 68.3 72.0999 64.3C77.0999 58.2 78.2999 51 78.2999 41.9V32.2C78.2999 22.7 79.9999 16.4 82.3999 9.29996C82.7999 8.09996 82.9999 7.19996 82.9999 6.09996C82.8999 2.99996 80.8999 0.999963 78.5999 0.999963Z" fill="#0B0B0B" stroke="url(#paint0_linear_63_434)" stroke-width="3.25" stroke-miterlimit="10"/>
<path d="M40 8.80005C23.9 8.80005 19 10.7 14.2 15.4C9.99995 19.5 8.19995 26.1 8.19995 36.6V38C8.39995 49.9 10.4 56.1001 15.2 60.7001C20 65.3001 23.5 66.7001 38 66.8001H42C55.9 66.7001 61.2 65.0001 65.3 61.4001C70 57.2001 71.9999 51.0001 72.0999 39.9001V36.6C71.9999 26 69.9 19.7 65.8 15.8C60.7 10.9 55.2999 8.80005 41.2999 8.80005H40ZM40.2 12.9C44.8 12.9 49.0999 13.1 52.7999 13.9C62.0999 16 67.6999 21.0001 67.6999 37.4001C67.6999 53.9001 63.2999 59.9 52.7999 61.8C49.3999 62.5 45 62.8 40.2 62.8C35.4 62.8 30.9 62.6 27.1 61.8C17 59.9 12.5 53.9001 12.5 38.4001C12.5 22.4001 17.1 16.8 24.4 14.7C27.8 13.6 33.7 13 40.2 12.9Z" fill="url(#paint1_linear_63_434)"/>
<path d="M28.1999 30.2C26.0999 30.2 23.8999 31.7999 23.8999 34.0999V38.5C23.8999 40.8 25.6999 42.4 28.0999 42.4C30.4999 42.4 32.3999 40.7999 32.3999 38.2999V34.4C32.3999 32 30.4999 30.2 28.1999 30.2Z" fill="white"/>
<path d="M52.0999 30.2C49.9999 30.2 47.8999 31.7 47.8999 34.2V38.2999C47.8999 40.5999 49.2999 42.3 52.0999 42.4C54.5999 42.4 56.3999 40.6999 56.3999 38.2999V34.4C56.3999 32 54.4999 30.2 52.0999 30.2Z" fill="white"/>
</g>
<defs>
<linearGradient id="paint0_linear_63_434" x1="5.5919" y1="11.71" x2="75.8199" y2="70.78" gradientUnits="userSpaceOnUse">
<stop stop-color="#666666"/>
<stop offset="0.524038" stop-color="#A0A0A0"/>
<stop offset="1" stop-color="#373737"/>
</linearGradient>
<linearGradient id="paint1_linear_63_434" x1="9.11095" y1="26.5401" x2="70.47" y2="52.64" gradientUnits="userSpaceOnUse">
<stop stop-color="#8AF6E9"/>
<stop offset="0.5" stop-color="#FFDF93"/>
<stop offset="1" stop-color="#F6A056"/>
</linearGradient>
<clipPath id="clip0_63_434">
<rect width="84.5" height="76" fill="white"/>
</clipPath>
</defs>
</svg>
