<svg xmlns="http://www.w3.org/2000/svg" width="28" height="28" viewBox="0 0 28 28" fill="none"><line x1="4" y1="14" x2="10" y2="6" stroke="currentColor" stroke-width="1.2" stroke-linecap="round"></line><line x1="10" y1="6" x2="18" y2="6" stroke="currentColor" stroke-width="1.2" stroke-linecap="round"></line><line x1="10" y1="6" x2="14" y2="14" stroke="currentColor" stroke-width="1.2" stroke-linecap="round"></line><line x1="18" y1="6" x2="14" y2="14" stroke="#b16148" stroke-width="1.2" stroke-linecap="round"></line><line x1="18" y1="6" x2="24" y2="14" stroke="#b16148" stroke-width="1.2" stroke-linecap="round"></line><line x1="4" y1="14" x2="14" y2="14" stroke="currentColor" stroke-width="1.2" stroke-linecap="round"></line><line x1="14" y1="14" x2="24" y2="14" stroke="#b16148" stroke-width="1.2" stroke-linecap="round"></line><line x1="4" y1="14" x2="9" y2="22" stroke="currentColor" stroke-width="1.2" stroke-linecap="round"></line><line x1="14" y1="14" x2="9" y2="22" stroke="currentColor" stroke-width="1.2" stroke-linecap="round"></line><line x1="14" y1="14" x2="19" y2="22" stroke="#b16148" stroke-width="1.2" stroke-linecap="round"></line><line x1="24" y1="14" x2="19" y2="22" stroke="#b16148" stroke-width="1.2" stroke-linecap="round"></line><circle cx="4" cy="14" r="2.5" fill="currentColor"></circle><circle cx="10" cy="6" r="2.5" fill="currentColor"></circle><circle cx="18" cy="6" r="2.5" fill="#b16148"></circle><circle cx="14" cy="14" r="3" fill="#b16148"></circle><circle cx="24" cy="14" r="2.5" fill="#b16148"></circle><circle cx="9" cy="22" r="2.5" fill="currentColor"></circle><circle cx="19" cy="22" r="2.5" fill="#b16148"></circle></svg>